<?xml version="1.0" encoding="utf-8"?>

<!DOCTYPE svg PUBLIC "-//W3C//DTD SVG 1.1//EN" "http://www.w3.org/Graphics/SVG/1.1/DTD/svg11.dtd">
<svg version="1.1" id="Layer_1" xmlns="http://www.w3.org/2000/svg" xmlns:xlink="http://www.w3.org/1999/xlink" x="0px" y="0px"
	 viewBox="0 0 1281 1554" enable-background="new 0 0 1281 1554" xml:space="preserve">
<path d="M831.2,27.02c0.7-0.01,2.1-0.03,2.81-0.04c-2.56,8.51-5.46,16.93-7.52,25.59c-9.19,34.9-6.21,73.06,9.06,105.84
	c8.03,17.85,19.29,34.15,32.52,48.53c8.07,9.34,17.13,17.83,26.72,25.58c0.86-15.12,3.12-30.2,6.93-44.86
	c5.15-19.18,13.29-37.47,23.54-54.46c2.37-3.65,4.54-7.54,7.79-10.5c-0.84,9.14-3.71,18.04-4.07,27.25
	c-0.17,7.03-0.14,14.06,0.08,21.08c3.73,38.93,23.51,74.27,47.68,104.23c3.1,4.09,7.87,6.22,12.07,8.96
	c22.05,14.54,41.05,34.07,53.59,57.42c6.6,11.94,11.6,24.73,15.21,37.88c1.16,3.85,2.34,7.74,2.49,11.8
	c-2.08-0.96-4.02-2.15-5.79-3.58c-8.63-6.66-18.71-12.05-29.75-12.92c2.13,12.38,7.7,23.92,13.72,34.85
	c7.02,11.87,16.46,22.77,28.84,29.21c6.22,2.48,12.7,4.27,18.74,7.22c18.24,7.9,34.91,21.12,43.69,39.28
	c9.18,18.55,9.39,40.16,5.94,60.17c-1.7,11.39-5.62,22.26-8.9,33.25c-0.61,0.05-1.83,0.17-2.44,0.22
	c-3.76-10.52-8.17-20.82-13.31-30.74c-5.07-10.09-11.15-19.89-19.46-27.63c-5.81-5.88-13.05-10.13-20.49-13.57
	c-9.55-3.56-19.49-6.16-29.59-7.46c-14.09-2.59-28.63-2.32-42.42-6.51c-21.16-5.67-40.24-16.86-58.15-29.17
	c3.24,5.59,6.91,10.99,9.12,17.12c5.12,12.43,5.53,26.17,10.51,38.64c1.79,5.41,4.86,10.27,6.68,15.67
	c-7.04-2.82-12.31-8.8-16.42-15c-4.28-6.35-7.87-13.25-13.25-18.78c-8.84-8.83-18.4-17.04-25.99-27.02
	c-1.23-1.67-3.32-2.19-5.18-2.75c-17.54-5.25-34.68-11.72-51.73-18.35c-8.8-3.75-17.66-7.38-26.12-11.85
	c-3.89-2.35-8.54-1.35-12.8-2.07c-4.78-0.84-9.65-0.29-14.45-0.86c-20.35-2.52-40.23-9.31-57.64-20.19
	c-12.45-7.86-24-17.18-34.1-27.91c-11.54-12.67-22.08-26.27-31.02-40.91c-2.04-3.58-4.92-6.8-5.79-10.92
	c5.33,3.44,8.92,8.87,13.94,12.72c21.81,20.15,47.84,35.98,76.28,44.74c9.25,3,18.81,4.83,28.3,6.87
	c-7.43-8.88-16.59-16.17-23.86-25.21c-14.18-15.43-24.52-35.03-26.06-56.18c2.26,0.76,2.91,3.26,4.06,5.1
	c6.5,12.33,17.08,22.32,29.64,28.33c10.45,5.47,21.97,8.39,33.52,10.46c9,1.21,18.24,1.89,26.74,5.35c4.55,1.94,9.12,3.94,13.25,6.7
	c3.38,2.19,6.4,4.92,9.95,6.85c-2.16-7.24-5.97-14.1-11.46-19.34c-23.46-23.48-51.05-42.86-81.12-56.92
	c-28.21-13.31-58.98-21.59-90.22-22.59c-22.51-0.55-45.48,3.12-65.98,12.8c-15.01,7.4-28.68,17.91-38.52,31.56
	c-11.44,15.79-19.37,34.39-21.42,53.87c-2.19,18.98,0.88,38.48,8.47,56.01c12.57,29.52,36.18,53.07,62.96,70.1
	c31.2,19.58,66.64,31.58,102.73,38.24c29.99,5.44,60.58,6.67,90.51,12.57c11.46,1.57,22.62,4.63,33.91,7.05
	c25.7,6.3,51.02,14.55,74.86,26.14c21.88,10.58,42.41,24.14,60.03,40.94c12.99,12.66,24.29,27.13,32.93,43.1
	c10.14,18.94,16.7,39.71,20.07,60.91c5.08,30.79,3.49,62.36-2.26,92.95c-7.99,39.49-23.12,77.72-45.71,111.17
	c-2.3,3.36-4.84,6.58-6.8,10.17c17.79-9.46,35.37-19.56,54.32-26.61c3.32-1.39,6.86-2.25,10.11-3.84
	c4.73-10.46,8.59-21.4,11.47-32.53c3.4-12.36,4.19-25.44,1.67-38.04c12.69-2.24,25.76-5.89,35.58-14.66
	c3.82-6.01,6.8-13.95,4.03-20.94c-1.91-4.75-6.85-7.32-11.52-8.6c-6.14-2.19-12.55,0.46-18.24,2.75c-4.49,1.67-7.78,5.65-12.55,6.63
	c-3.8-11.12-3.03-23.39,0.9-34.36c6.44-17.32,18.05-32.04,30.22-45.69c26.38-28.17,56.6-52.34,86.84-76.18
	c4.26-2.74,7.51-7.01,12.41-8.71c-1.92,3.65-5.33,6.1-8.08,9.07c-14.42,14.7-28.84,29.92-38.72,48.16
	c-2.87,4.98-4.37,10.53-6.11,15.95c-4.95,5.71-11.01,10.56-14.79,17.25c-3.46,4.81-5.07,10.99-3.61,16.81
	c1.8,5.46,6.83,9.1,11.95,11.21c4.78,0.8,9.26-2,12.89-4.81c6.25-5.38,8.71-13.63,10.27-21.43c3.74,1.24,6,4.7,9,7.07
	c7.43,5.96,16.12,10.89,25.7,12.15c15.69,0.63,32.38,4.83,43.6,16.51c13.76,14.2,17.83,35.62,14.22,54.58
	c-0.35-0.06-1.07-0.19-1.43-0.25c-2.51-10.01-8.79-18.88-16.9-25.17c-13.53-9.95-31.34-12.65-47.62-9.64
	c-20.16,3.74-38.44,14.82-52.82,29.19c-11.93,11.63-21.61,25.47-29.19,40.27c5.95-4.07,10.46-9.84,16.18-14.21
	c17.67-15.24,38.83-27.97,62.52-30.11c16.34,14.88,26.11,36.88,25.29,59.05c-0.67,8.59-1.74,17.22-4.42,25.45
	c-1.26,3.46-1.59,7.56-4.49,10.15c-2.86-8.89-5.34-18.6-12.68-25.01c-5.47-4.88-12.74-6.99-18.52-11.45
	c-4.23-2.77-7.64-6.54-11.03-10.22c-9.97,4.25-19.57,9.72-27.37,17.33c-5.26,5.55-9.41,12.78-9.44,20.61
	c-0.92,13.59,9.07,25.8,21.02,31.09c3.57,1.86,8.08,1.69,11.33-0.78c4.94-2.79,7.44-8.08,10.73-12.44c1.71,0.48,1.52,2.76,1.9,4.16
	c1.68,9.4-0.53,19.3-5.62,27.33c-6.18,10.29-17.46,17.11-29.27,18.61c-6.96,0.13-14.05,0.64-20.88-1.02
	c-4.38-1.05-8.59-2.7-12.86-4.09c-3.66,9.07-7.91,17.95-13.56,25.96c-11.65,16.6-27.75,29.68-45.38,39.48
	c-2.09,1.13-4.28,2.07-6.49,2.93c4.26-6.42,9.67-11.98,14-18.36c13.29-18.69,24.18-40.06,26.23-63.21
	c-5.41,4.41-9.51,10.11-14.37,15.07c-15.64,16.05-31.29,32.13-48.21,46.85c-29.8,26.29-62.08,49.99-97.21,68.67
	c-4.74,2.39-9.06,5.79-14.3,7.04c4.88-7.09,11.59-12.64,17.16-19.15c14.17-15.62,27.2-33.04,33.9-53.25
	c-5.15,4.92-9.64,10.5-14.89,15.34c-23.14,22.52-50.99,39.96-80.81,52.19c-4.73,1.79-9.3,4.54-14.48,4.65
	c5.49-5.01,12.05-8.66,17.81-13.35c23.88-18.68,45.32-42.23,55.58-71.22c-11.9,4.33-23.4,9.84-35.7,13.06
	c-17.31,5.71-35.39,8.8-53.5,10.45c-8.32-0.53-16.54,2.11-24.83,0.69c-4.06-0.82-8.21-0.61-12.31-0.73
	c-25.25-2.27-50.16-8.45-73.49-18.37c-9.83-3.58-18.85-8.91-28.34-13.21c-10.72,16.58-27.7,28.8-46.67,34.1
	c-6.46,1.86-13.05,3.84-19.83,3.54c2.39-4.53,6.81-7.49,9.9-11.5c10.49-11.39,19.68-24.98,21.62-40.68
	c-6.54,5.51-11.96,12.24-18.63,17.62c-17.25,15.23-38,27.61-61.07,30.99c-4.08,0.85-8.27,0.57-12.41,0.63
	c-11.25,0.54-22.39-3.27-31.79-9.28c-14.32-9.75-23.19-25.63-27.86-41.99c-3.03-11.14-4.65-22.72-4.6-34.26
	c2.7,2.3,3.04,6.06,4.61,9.07c5.75,12.09,14.84,23.11,27.12,28.92c7.47,4.02,16.18,4.95,24.54,4.56
	c13.11-1.01,25.17-9.19,31.41-20.68c2.96-5.46,5.47-11.26,6.47-17.42c0.53-5.32,0.48-10.69-0.01-16.01
	c-2.42-14.28-13.02-25.75-25.52-32.32c-8.29-4.93-18-6.34-27.4-7.58c-25.77,0.56-50.94,12.71-67.74,32.24
	c-9.3,10.87-17.03,23.47-20.48,37.47c-4.59,17.44-1.94,36.72,7.41,52.17c5.71,9.84,13.57,18.3,22.41,25.41
	c2.37,1.99,4.95,3.82,6.66,6.47c-3.77,0.59-7.59,1.02-11.38,0.41c-28.58-0.32-55.34-13.49-78-30.06c-1.04-0.66-2.09-1.27-3.15-1.83
	c2.72,23.92,14.45,46.6,31.74,63.27c27.28,26.11,64.69,38.65,101.5,43.42c4.96,1.1,10.04,0.96,15.08,1.38
	c7.62,1,15.32,0.48,22.98,0.6c24.01,0.52,47.95-2.68,71.4-7.62c18.95-4.53,37.79-9.63,57.03-12.78c16.05-2.93,32.31-4.4,48.55-5.61
	c10.69,0.05,21.39-0.07,32.08,0.06c22.6,1.84,45.26,5.41,66.62,13.27c38.61,13.4,72.46,38.06,100.73,67.2
	c6.44,7.14,14.56,12.72,23.21,16.85c7.12,3.41,15.26,4.69,23.05,3.31c7.92-1.79,14.95-6.77,19.93-13.11
	c0.89-1.2,1.99-2.22,3.23-3.06c2.17,17.68-7.52,35.64-22.78,44.49c-10.67,6.88-22.92,10.7-35.24,13.33
	c1.12,8.16,4.73,15.8,9.27,22.61c5.99,9.39,15.51,16.05,25.64,20.34c13.84,5.32,28.84,6.99,43.59,6.79
	c-12.09,17.16-32.69,26.86-53.26,28.78c-5.6,0.2-11.19,1.8-16.79,0.77c-2.44-0.27-5.2-1.35-7.45,0.06
	c-1.18,1.24-1.86,2.85-2.65,4.36c-18.52,36.36-43.41,70.4-76.85,94.36c-32.27,23.72-71.51,37.22-111.28,40.56
	c-10.62,1.13-21.32,1.4-32,1.31c-7.37-0.6-14.84,0.36-22.14-1.06c-18.23-0.92-36.31-3.87-54.21-7.34
	c3.22,6.28,8.04,11.57,12.33,17.14c8.68,9.96,17.98,19.51,28.61,27.41c4.84,3.82,9.89,7.38,14.74,11.19
	c0.99,0.82,1.38,2.12,2.02,3.25c-10.16,0.32-20.42,0.42-30.42-1.65c-9.48-0.27-18.68-2.77-27.97-4.45
	c-39.69-8.3-77.36-24.47-112.63-44.23c-33.92-19.41-65.19-43.45-92.51-71.4c-15.78-16.4-30.19-34.12-42.97-52.95
	c-5.25-8.27-11.09-16.29-14.87-25.37c6.93,3.89,12.92,9.2,19.64,13.44c37,25.22,79.99,43.21,125.01,46.07
	c5.78,0.91,11.69,1.03,17.44-0.06c23.62-0.92,47.3-7.17,67.55-19.55c26.04-15.11,45.77-39.44,58.62-66.39
	c3.91-7.5,6.35-15.65,9.89-23.3c0.38,0.03,1.15,0.09,1.53,0.11c2.61,11.43,4.76,23.11,4.31,34.87c0.82,22.14-4.92,44.12-13.85,64.25
	c-1.66,3.73-3.6,7.34-5.12,11.14c27.8-12.08,52.37-31.67,69.99-56.37c1.77-2.3,3.1-5.12,5.8-6.46c0.92,19.22-3.11,38.57-11.36,55.95
	c-5.07,10.94-10.88,21.52-17.19,31.79c-1.49,2.56-3.78,5.98-1.4,8.76c3.27,2.97,7.84,3.93,12.14,4.28
	c8.17,1.36,16.57,0.25,24.51-1.87c25.2-10.32,49.45-23.8,69.53-42.4c14.8-13.46,26.72-30.19,34.16-48.8
	c11.05-28.43,10.24-60.8-0.07-89.31c-3.34,6.11-5.76,12.7-9.73,18.46c-11.57,17.97-29.73,31.11-49.72,38.28
	c-8.06,3.33-16.57,5.4-25.04,7.38c0.65-2.61,3.18-3.78,5.09-5.33c15.73-11.75,27.36-29.94,28.62-49.82
	c1.54-17.72-5.4-35.84-18.16-48.17c-9.36-8.48-21.39-14.45-34.16-14.85c-9.31-0.34-18.85,1.34-26.94,6.16
	c-13.26,7.05-21.51,21-24.82,35.3c-1.5,6.51-2.31,13.17-2.6,19.85c-5.34-2.25-9.01-6.95-12.86-11.06
	c-10.1-12.95-12.87-30.29-10.94-46.27c-10.78,3.62-21.19,8.26-31.93,12.01c-16.79,5.5-33.54,11.25-50.75,15.34
	c-24.99,6.28-50.46,10.79-76.16,12.72c-2.67,0.09-5.33,0.04-8,0.03c-3.11,6.25-5.27,12.99-9.4,18.71
	c-6,8.81-14.17,16.03-23.13,21.74c-3.78,2.17-7.35,4.9-11.69,5.85c0.76-4.87,3.01-9.39,3.4-14.32c1.61-9.54-2.07-19.61-8.98-26.29
	c-1.53-1.43-3.65-1.84-5.6-2.31c-38.77-8.98-76.14-26.38-105.52-53.55c-23.87-21.58-41.99-49.05-54.57-78.53l-0.59-0.52
	c-7.01,8.95-14.34,17.79-23.32,24.87c-5.32,3.89-10.42,8.52-16.77,10.63c4.66-9.79,10.28-19.16,14.01-29.39
	c5.68-14.72,10-30.26,10.22-46.12c-11.68,6.97-23.27,14.3-35.96,19.34c-10.62,4.71-21.75,8.3-33.08,10.84
	c-5.73,0.79-11.42,2.32-17.23,1.95c7.66-5.73,15.85-10.75,23.25-16.85c19.93-15.78,37.58-34.87,49.73-57.32
	c8.17-14.6,14.02-30.51,17.29-46.91c-8.06,0.62-16.04,2.32-24.15,2.2c-5.41-0.09-10.82,1.4-16.21,0.43
	c-3.25-0.51-6.55-0.41-9.82-0.51c-18.97-1.46-37.58-7.76-53.24-18.63c-2.56-2.05-6.68-3.37-7.06-7.08
	c13.69,0.19,27.34-1.64,40.65-4.82c10.12-1.75,19.82-5.27,29.49-8.63c39.02-14.85,73.99-38.73,105.32-66.04
	c-10.8-14.1-19.66-29.85-24.84-46.89c-3.79-11.61-5.98-23.7-7.11-35.84c4.1,2.79,7.27,6.66,11.14,9.75
	c5.51,4.35,11.38,8.32,17.9,11.04c19.96,9.49,41.83,14.19,63.72,16.39c6.87,1.3,13.9,0.64,20.83,1.43
	c11.1,1.13,22.18-0.62,33.28-0.7c8.11-1.28,16.36-1.63,24.41-3.35c15.74-2.59,31.62-4.92,47.62-4.66c10-1.05,20,0.35,30.01,0.12
	c43.07,2.88,85.57,15.33,123.03,36.86c19.84,11.13,38.15,24.85,54.9,40.22c3.95,3.35,7.22,7.44,11.44,10.49
	c-2.03-10.05-4.27-20.19-3.7-30.52c0.55-10.72,1.78-21.8,6.64-31.52c1.75,4.45,1.66,9.33,3.01,13.89
	c5.49,21.1,19.94,39.56,38.74,50.49c19.93,11.96,45.13,13.69,66.92,6.1c6.37-2.81,10.76-8.58,14.52-14.22
	c-19.29-7.91-39.23-15.49-55.52-28.9c-17.22-13.73-28.23-35.07-29.03-57.1c3.1,4.06,5.12,8.83,8.4,12.78
	c8.7,10.6,21.23,18.37,34.95,20.13c10,0.9,20.39,0.44,29.7-3.69c11.42-5.05,22.18-12.64,29.23-23.08c-10.03,4-20.69,6.73-31.54,6.77
	c2.42-3.54,6.1-5.88,9.03-8.96c9.61-9.87,17.93-21.31,22.64-34.35c8.43-22.68,4.96-48.22-4.35-70.07
	c-2.51,8.91-4.78,18.06-9.86,25.95c-5.57,8.6-12.31,16.98-21.45,21.97c1.71-7.37,4.74-14.54,4.45-22.26
	c0.73-12.84-4.52-25.16-11.64-35.57c-2.98-4.1-5.76-8.44-9.59-11.82c1.92,16.79,2.76,34.3-2.81,50.54
	c-4.09,12.8-11.65,24.39-21.37,33.63c-4.89,4.66-9.88,9.55-16.06,12.42c1.5-4.36,4.53-7.95,6.36-12.17
	c5.53-10.46,7.28-22.69,5.35-34.33c-1.69-8.72-5.79-16.83-11.28-23.77c-2.73-3.38-5.38-6.95-9.05-9.37
	c-0.01,13.33-0.31,26.83-3.8,39.79c-8.27,34.54-30.3,64.13-56.26,87.65c-4.3,3.47-7.91,7.93-13.03,10.27
	c2.2-5.85,6.32-10.66,8.99-16.27c13.08-24.67,18.19-53.83,12.86-81.33c-3.53,2.11-6.14,5.35-9.2,8.04
	c-20.87,18.35-43.82,35.08-70.05,44.85c-8.95,3.03-18.05,6.05-27.55,6.57c-6.71,1.08-13.6,1.37-20.32,0.21
	c-18.62-1.57-36.21-9.81-50.65-21.45c-4.02-2.97-7.34-6.76-11.26-9.84c-1.52-0.21-2.69,1.14-3.98,1.71
	c-16.64,9.95-34.71,17.26-53.3,22.63c-11.25,2.75-22.42,6.22-34.03,7.03c4.6-3.9,10.08-6.49,15.07-9.83
	c13.53-8.79,26.59-18.5,37.91-30.06c5.26-5.87,10.84-11.69,14.42-18.79c-11.37,5.3-22.32,11.56-33.99,16.23
	c-22.97,10.42-47.02,18.89-71.98,22.91c-7.99,1.28-16.09,0.94-24.11,1.87c0.17-0.32,0.52-0.96,0.69-1.29
	c6.93-3.19,14.22-5.56,21.19-8.69c23.02-9.79,44.43-24.13,60.75-43.22c-5.99,1.26-11.6,3.8-17.48,5.41
	c-11.79,3.15-23.76,5.79-35.92,6.95c-5.68-0.25-11.27,1.46-16.94,0.56c-4.7-0.62-9.44-0.32-14.15-0.64
	c-18.25-2.25-36.26-7.44-52.28-16.58c-11.43-5.84-21.23-14.19-31.18-22.12c2.33,18.86,12.74,35.53,23.63,50.68
	c4.33,6.37,10.01,11.75,13.96,18.38c-1.43-0.66-2.86-1.29-4.17-2.14c-32.17-23.61-60.7-53.17-79.33-88.71
	c-15.63-29.25-24.09-62.1-25.93-95.15c-0.99-7.02-0.62-14.12-0.68-21.19c0.07-8.11-0.35-16.26,0.77-24.32
	c0.41-17.47,3.6-34.73,5.44-52.07c-7.13,11.6-12.45,24.22-17.88,36.69c-19.39,45.12-30.49,93.7-33.35,142.68
	c0.16,10.67-1.02,21.33-0.31,32c0.19,12.69,0.61,25.37,2.19,37.98c0.97,14.63,4.28,28.99,5.45,43.6
	c-6.4-12.93-9.96-27.05-14.09-40.83c-8.21-29.61-13.3-60.08-15.24-90.72c0.09-15.12-0.86-30.31,0.65-45.36
	c3.17-46.8,16.86-92.82,39.45-133.9c-4.46,3.27-7.52,7.99-11.4,11.88c-49.55,55.29-87.56,120.94-110.4,191.6
	c-24.927,74.417-31.966,153.166-28.975,231.242c1.487,38.823,5.484,77.506,11.079,115.944c1.233,8.47,2.529,16.931,3.871,25.384
	c-16.445-40.177-25.678-83.082-32.387-125.836c-8.678-55.308-6.679-111.686-4.007-167.391c1.131-23.571,4.681-45.81,9.774-68.863
	c8.115-36.724,19.757-72.668,34.726-107.171c7.932-18.285,16.799-36.165,26.568-53.539c38.12-68.16,89.89-128.5,150.85-177.26
	c54.09-43.37,115.74-77.53,181.61-99.27c16.44-5.23,33.01-10.13,49.94-13.49c-0.52,3.24-3.88,4.35-6.17,6.13
	c-32.43,23-61.85,50.19-87.65,80.41c-25.13,29.94-46.74,63.1-61.68,99.31c-10.09,24.62-17.3,50.57-19.75,77.11
	c0.02,5.38-1.33,10.67-1.11,16.06c-0.27,13.87,0.82,27.77,3.35,41.41c1.99-3.26,3.12-6.93,4.8-10.34
	c8.37-17.79,19.35-34.66,33.93-47.98c16.94-15.98,38.71-26.28,61.35-31.17c-0.91,2.5-3.53,3.53-5.51,5.02
	c-15.24,10.39-26.83,25.29-35.57,41.37c-8.48,16.08-14.39,33.64-16.48,51.73c-1.39,7.92-0.76,15.99-0.86,23.99
	c0.88,20.98,8.54,42.34,23.93,57.06c9.02,8.5,20.36,15.84,33.11,16.22c11.19,0.62,22.27-1.73,33.07-4.44
	c-10.63-19.19-18.79-40.62-18.1-62.87c-0.55-16.11,3.95-32.01,10.34-46.66c2.23-4.31,3.48-9.5,7.59-12.5
	c-3.06,18.73-0.95,38.51,7.64,55.56c9.49,20.21,25.81,36.26,43.16,49.88c1.8,1.43,3.77,3.02,6.24,2.74
	c7.04-0.13,14.15,0.48,21.12-0.82c9.81-0.71,19.57-1.93,29.22-3.87c13.71-1.6,26.79-6.94,40.66-7.32
	c9.66,0.06,19.54-0.74,28.92,2.12c16.18,3.92,31.29,13.81,39.64,28.43c4.75,7.94,6.8,17.2,7.14,26.37
	c-0.52,5.3-0.59,10.87-3.06,15.72c-5.16,10.54-15.11,18.12-26.04,21.96c-5.23,1.92-10.94,1.57-16.4,1.21
	c-9.44-2.41-18.59-9.58-20.4-19.58c-1.14-4.04,0.03-8.16,0.43-12.21c0.64,0,1.93,0.01,2.58,0.01c3.42,6.43,9.05,12.3,16.53,13.52
	c7.65,0.22,15.55-6.42,14.73-14.48c-1.76-12.82-17.21-21.85-29.1-16.15c-7.94,2.94-12.28,11.07-14.03,18.9
	c-1.51,6.83,0.23,13.93,3.1,20.17c5.49,11.93,17.84,20.28,30.95,21c11.47,0.61,22.85-3.33,32.22-9.81
	c12.08-8,20.31-21.73,21.15-36.24c1.36-10.75-1.02-21.58-4.47-31.72c-4.52-14.41-15.24-26.08-27.49-34.51
	c-11.32-7.62-23.98-13.06-36.94-17.19c-11.09-3.78-22.61-6.16-33.58-10.31c-33.02-11.85-63.91-30.41-88.58-55.48
	c-25.73-25.78-44.28-59.37-49.41-95.64c-1.44-12.47-2.78-25.09-1.26-37.63c2.47-32.47,13.3-64.07,29.75-92.08
	c17.01-28.87,39.8-54.4,66.88-74.19c2.41-1.84,4.87-3.62,7.23-5.52c-4.67-1.98-9.67-2.97-14.4-4.76
	c-19.41-7.09-37.51-18.16-51.83-33.14c-11.33-11.04-20.17-24.34-27.81-38.11c-1.02-1.99-1.67-4.13-2.31-6.26
	c2.61,1.46,4.97,3.3,7.23,5.26c17.08,13.23,37.05,22.38,57.75,28.34c17.28,5.45,35.22,8.19,53.11,10.72
	c9.27,1.02,18.53,2.23,27.86,2.36c3.49,0.26,6.92,1.07,10.45,0.95c-0.49-1.31-0.85-2.69-1.74-3.79
	c-12.34-16.41-22.84-34.23-30.78-53.18c-6.02-15.64-10.59-32.19-10.15-49.09c-0.78-22.46,5.96-44.66,17.06-64.04
	c0.78-1.37,2.06-2.33,3.24-3.34c0.54,4.52-0.31,9.02-0.99,13.47c-0.85,17.35,0.82,34.82,5.17,51.65
	c5.12,17.86,13.82,34.86,26.38,48.64c19.65,22.27,46.42,37.06,74.19,46.73c3.37,1.3,6.71,2.79,10.33,3.29
	c-0.36-14.14-0.64-28.39,1.83-42.37c2.14-12.33,5.69-24.49,11.28-35.72c2.42-4.82,4.66-9.94,8.63-13.72
	c0.54,6.75-1.53,13.4-0.77,20.14c0.8,7.33,1.16,14.75,3.11,21.9c3.42,13.14,9.18,25.86,17.69,36.5
	c-1.39-10.33-0.96-20.77-0.95-31.17c1.15-13.23,2.51-26.58,6.69-39.27c3.57-11.52,8.55-22.65,15.28-32.68
	c2.64-4.04,5.15-8.33,9.06-11.31c-0.75,9.12-2.9,18.1-3.07,27.27c-0.56,23.13,4.85,46.3,15,67.06c1.44,2.93,2.77,5.99,4.95,8.48
	c-1.06-6.8-0.77-13.69-1.53-20.52c-0.59-7.37,0.66-14.69,0.76-22.05c2.21-20.65,7.51-41.14,17.11-59.62
	C810.51,53.27,819.84,39.23,831.2,27.02 M900.87,302.68c1.74,8.05,4.02,16.15,7.99,23.41c1.83,3.65,5.19,6.45,6.35,10.44
	c-7.96,2.7-18.18,3.91-22.57,12.07c12.92,7.39,27.3,12.92,42.32,13.41c10.89-0.39,21.84,0.98,32.26,4.18
	c-5.39-13.23-14.27-25.06-25.42-33.99c-5.76-4.76-12.39-8.26-18.61-12.35c-3.85-2.08-7.78-4.07-11.19-6.84
	C907.85,310.06,904.79,305.9,900.87,302.68z"/>
<path stroke="#000000" stroke-width="0.0938" d="M1187.22,650.39c1.4-0.62,1.84-0.21,1.32,1.23
	C1187.11,652.23,1186.67,651.82,1187.22,650.39z"/>
</svg>
